<?xml version="1.0" standalone="no"?><!DOCTYPE svg PUBLIC "-//W3C//DTD SVG 1.1//EN" "http://www.w3.org/Graphics/SVG/1.1/DTD/svg11.dtd"><svg t="1638607950575" class="icon" viewBox="0 0 1024 1024" version="1.1" xmlns="http://www.w3.org/2000/svg" p-id="5334" width="48" height="48" xmlns:xlink="http://www.w3.org/1999/xlink"><defs><style type="text/css"></style></defs><path d="M512 1024C229.23 1024 0 794.77 0 512S229.23 0 512 0s512 229.23 512 512-229.23 512-512 512z m0-960C264.576 64 64 264.576 64 512s200.576 448 448 448 448-200.577 448-448S759.423 64 512 64z m3.551 607.338a54.109 54.109 0 0 1-9.736 12.1c-25.243 20.358-41.475 2.794-48.063-4.212L342 540c-6.588-7.006-9.851-26.795 3.024-38.9S379.412 493 386 500l95.839 111.229 193.248-242.854a32 32 0 1 1 49.78 40.223z" fill="#1989fa" p-id="5335"></path></svg>