<?xml version="1.0" standalone="no"?><!DOCTYPE svg PUBLIC "-//W3C//DTD SVG 1.1//EN" "http://www.w3.org/Graphics/SVG/1.1/DTD/svg11.dtd"><svg t="1638608152684" class="icon" viewBox="0 0 1024 1024" version="1.1" xmlns="http://www.w3.org/2000/svg" p-id="3967" xmlns:xlink="http://www.w3.org/1999/xlink" width="48" height="48"><defs><style type="text/css"></style></defs><path d="M512 0A512 512 0 1 1 0 512 512 512 0 0 1 512 0z" fill="#FF9F37" p-id="3968"></path><path d="M512 739.555556a28.444444 28.444444 0 0 0-28.444444 28.444444v28.444444a28.444444 28.444444 0 0 0 56.888888 0v-28.444444a28.444444 28.444444 0 0 0-28.444444-28.444444z m0-85.333334a28.444444 28.444444 0 0 0 28.444444-28.444444V227.555556a28.444444 28.444444 0 0 0-56.888888 0v398.222222a28.444444 28.444444 0 0 0 28.444444 28.444444z" fill="#FFFFFF" p-id="3969"></path></svg>